<svg version="1.1" id="Layer_1" xmlns="http://www.w3.org/2000/svg" xmlns:xlink="http://www.w3.org/1999/xlink" x="0px" y="0px" viewBox="0 0 589 203" style="enable-background:new 0 0 589 203;" xml:space="preserve">
<style type="text/css">
	.st0{clip-path:url(#SVGID_2_);}
	.st1{fill:#A6A6A6;}
	.st2{clip-path:url(#SVGID_4_);}
	.st3{clip-path:url(#SVGID_6_);}
	.st4{fill:#676767;}
	.st5{fill:#FFC52A;}
	.st6{fill:#FFCB26;}
	.st7{fill:#202020;}
	.st8{fill:#FFFFFF;}
	.st9{enable-background:new    ;}
</style>
<g>
	<defs>
		<rect id="SVGID_1_" width="589" height="203"></rect>
	</defs>
	<clipPath id="SVGID_2_">
		<use xlink:href="#SVGID_1_" style="overflow:visible;"></use>
	</clipPath>
	<g id="Mac_Badge_45" class="st0">
		<g id="Group_39" transform="translate(0 0)">
			
			<path id="Path_159" d="M46.7,193.5h-4.4c-3,0-6-0.3-9-0.8c-2.8-0.5-5.5-1.4-8-2.6c-2.5-1.3-4.8-2.9-6.8-4.9c-2-2-3.7-4.2-4.9-6.7
				c-1.3-2.5-2.2-5.2-2.6-8c-0.5-3-0.8-6-0.8-9c0-1-0.1-4.4-0.1-4.4V45.5c0,0,0-3.3,0.1-4.3c0-3,0.3-6,0.8-9c0.5-2.8,1.3-5.5,2.6-8
				c1.3-2.5,2.9-4.8,4.9-6.8c2-2,4.3-3.7,6.8-4.9c2.5-1.3,5.2-2.2,8-2.6c3-0.5,6-0.8,9.1-0.8L46.8,9h496.1l4.4,0.1c3,0,6,0.3,9,0.8
				c2.8,0.5,5.5,1.4,8.1,2.6c5,2.6,9.1,6.7,11.7,11.7c1.3,2.5,2.1,5.2,2.6,8c0.5,3,0.8,6.1,0.8,9.1v120.2c-0.1,3-0.3,6-0.8,8.9
				c-0.4,2.8-1.3,5.5-2.6,8.1c-1.3,2.5-2.9,4.7-4.9,6.7c-2,2-4.3,3.7-6.8,4.9c-2.5,1.3-5.2,2.2-8,2.7c-3,0.5-6,0.7-9,0.8L46.7,193.5
				L46.7,193.5z" data-index="1" style="opacity: 1; visibility: hidden; fill: rgb(121, 40, 202);"></path>
			<g>
				<defs>
					<rect id="SVGID_3_" width="589" height="203"></rect>
				</defs>
				<clipPath id="SVGID_4_">
					<use xlink:href="#SVGID_3_" style="overflow:visible;"></use>
				</clipPath>
				<g id="Linux_Badge" class="st2">
					<g>
						<defs>
							<rect id="SVGID_5_" x="5.7" y="5" width="577.6" height="193.1"></rect>
						</defs>
						<clipPath id="SVGID_6_">
							<use xlink:href="#SVGID_5_" style="overflow:visible;"></use>
						</clipPath>
						<g id="_3" transform="translate(6.258 4.844)" class="st3">
							<g id="_3-2" transform="translate(-0.258 0.155)">
								<g id="Download-MacOS">
									<g id="Group_3667">
										<g id="Tux_Mono-3" transform="translate(44.221 42.092)">
											<path id="path3-3" class="st4" d="M84.4,83.9L84.4,83.9c-0.8-1.2-1.3-2.7-1.5-4.1c-0.2-1.8-1-3.4-2.2-4.7l0,0
												c-0.3-0.2-0.5-0.4-0.8-0.6c-0.3-0.2-0.6-0.3-0.9-0.4c1.7-5.4,1.4-11.2-0.8-16.4c-2.3-5.7-5.6-10.9-9.7-15.5
												c-3.5-4.5-7-8.7-6.9-15C61.8,17.7,62.7,0,45.9,0c-0.7,0-1.4,0-2.1,0.1C25,1.6,29.9,21.4,29.7,28.1
												c-0.2,4.9-1.8,9.5-4.7,13.4c-5.2,5.9-9.3,12.7-12.1,20.1c-1.3,3.5-1.7,7.3-1.3,11.1c-0.2,0.2-0.3,0.3-0.5,0.5
												c-1.2,1.2-2,2.7-2.9,3.7c-1,0.8-2.2,1.4-3.5,1.7c-1.6,0.4-3,1.5-3.9,3l0,0c-0.4,0.8-0.6,1.7-0.6,2.6
												c0,0.8,0.1,1.6,0.2,2.5c0.3,1.4,0.4,2.9,0.2,4.3c-1.1,2-1.2,4.4-0.5,6.6c0.9,1.4,2.5,2.4,4.2,2.6
												c3.6,0.8,8.5,0.6,12.3,2.6l0.3-0.6l-0.3,0.6c3.5,2,7.6,2.8,11.6,2.2c2.4-0.5,4.4-2,5.4-4.2c2.6,0,5.5-1.1,10-1.4
												c3.1-0.2,7,1.1,11.5,0.9c0.1,0.5,0.3,1,0.5,1.4l0,0c1.5,3.2,4.8,5.1,8.4,4.8c4-0.5,7.6-2.6,10-5.8l-0.5-0.5l0.5,0.4
												c2.8-3.4,7.5-4.8,10.6-6.7c1.5-0.7,2.6-2.1,2.9-3.8C87.4,87.7,86.2,85.5,84.4,83.9z" data-index="2" style="opacity: 1;"></path>
											<path id="path5-3" class="st5" d="M86.2,90c-0.1,1-0.8,1.8-2.2,2.7c-2.8,1.7-7.8,3.2-10.9,7c-2.2,2.9-5.5,4.8-9.1,5.3
												c-3,0.3-5.8-1.3-7-4l0,0c-0.8-2.5-0.7-5.1,0.2-7.5c0.9-2.8,1.6-5.6,2.1-8.4l0,0c0-2.7,0.3-5.4,0.9-8
												c0.3-1.8,1.3-3.4,2.8-4.4l0.2-0.1c-0.1,2.7,1.5,5.1,3.9,6.1c3,0.2,6-1.1,8-3.4c0.3,0,0.6,0,0.9,0
												c1.4-0.2,2.7,0.2,3.8,1.1l0,0c1,1.1,1.6,2.5,1.7,3.9c0.2,1.7,0.8,3.3,1.8,4.7l0,0C85.5,87.3,86.2,88.9,86.2,90z" data-index="3" style="opacity: 1;"></path>
											<path id="path7-3" class="st5" d="M33,97.7L33,97.7c0,2.9-2.1,5.3-5,5.8c-3.7,0.6-7.4-0.2-10.7-2l0,0
												c-4.3-2.3-9.4-2.1-12.7-2.7c-1.3-0.1-2.5-0.8-3.2-1.8c-0.5-1.8-0.4-3.8,0.5-5.5l0,0c0.3-1.6,0.3-3.3-0.1-5
												c-0.4-1.4-0.3-2.9,0.2-4.2l0,0c0.6-1.2,1.8-2,3.1-2.4c1.5-0.4,2.9-1.1,4.1-2.1l0,0c1.1-1.2,2-2.7,3-3.7
												c0.7-0.9,1.8-1.5,2.9-1.5h0c0.2,0,0.5,0,0.7,0.1c1.9,0.5,3.5,1.7,4.5,3.3l4.1,7.4l0,0c1.5,2.6,3.3,5,5.3,7.3
												C31.6,92.6,32.7,95.1,33,97.7z" data-index="4"></path>
											<path id="path9-3" class="st6" d="M53.3,28.7c-0.5-0.8-1.2-1.4-2.1-1.7l0,0c-1.6-0.5-3.2-1.2-4.7-1.9
												c-1.6-1.1-3.4-1.8-5.4-1.9c-0.7,0-1.4,0.1-2.1,0.4c-1.4,0.6-2.7,1.5-3.7,2.6l0,0c-0.3,0.2-0.5,0.4-0.8,0.6
												c-0.5,0.3-1.1,0.8-2.1,1.6c-0.8,0.5-1.2,1.6-0.9,2.5c0.6,1.4,1.7,2.5,3.1,3.2l0,0c1,0.7,1.9,1.4,2.7,2.2
												c0.4,0.4,0.9,0.7,1.4,0.9c0.6,0.3,1.3,0.4,2,0.4c1.6,0.1,3.1-0.3,4.5-1.2c1.1-0.8,2.2-1.4,3.5-1.9l0,0
												c2-0.5,3.8-1.9,4.7-3.8C53.6,30.1,53.6,29.3,53.3,28.7L53.3,28.7z" data-index="5"></path>
											<path id="path11-3" class="st7" d="M47.1,32.3c-2,1.3-4.3,2-6.6,2.2c-2.1-0.1-4.1-0.8-5.7-2.2c-0.7-0.5-1.2-1.1-1.7-1.5
												c-0.7-0.6-0.6-1.4-0.3-1.4c0.5,0.1,0.6,0.7,0.9,1c0.4,0.4,1,0.9,1.6,1.4c1.4,1.2,3.3,2,5.2,2c2.2-0.2,4.3-0.9,6.2-2.1
												c1-0.6,2-1.3,2.9-2c0.7-0.5,0.7-1.1,1.2-1.1s0.2,0.7-0.7,1.4C49.2,31,48.2,31.7,47.1,32.3z" data-index="6"></path>
											<path id="path13-3" class="st8" d="M76.8,73.7h-0.9c0.7-2.1-0.8-3.7-4.7-5.4c-4.1-1.8-7.3-1.6-7.9,2
												c0,0.2-0.1,0.4-0.1,0.6c-0.3,0.1-0.6,0.2-0.9,0.4c-1.9,1.2-3.2,3.1-3.5,5.3c-0.6,2.7-0.9,5.5-0.9,8.3l0,0
												c-0.3,2-0.8,4.1-1.4,6c-6.7,4.8-15.9,6.8-23.8,1.5c-0.5-0.8-1.1-1.7-1.8-2.5c-0.4-0.5-0.8-1-1.2-1.6
												c0.7,0,1.4-0.1,2.1-0.4c0.7-0.3,1.2-0.8,1.4-1.5c0.4-1.9-0.2-3.8-1.5-5.2c-2.2-2.7-4.9-5-8-6.8l0,0
												c-2.4-1.4-4.2-3.6-5.1-6.2c-0.7-2.4-0.7-4.9-0.1-7.3c1.2-4.4,3.1-8.5,5.7-12.3c0.5-0.4,0.2,0.7-1.8,4.3
												c-1.8,3.4-5.1,11.1-0.5,17.1c0.2-4.4,1.1-8.7,2.9-12.8c2.5-5.7,7.8-15.6,8.2-23.4c0.2,0.2,1,0.7,1.3,0.8l0,0
												c0.9,0.7,1.8,1.4,2.6,2.1c1.1,0.9,2.5,1.4,3.9,1.5c0.2,0,0.3,0,0.5,0c1.6,0,3.1-0.5,4.4-1.3c1-0.7,2.1-1.3,3.3-1.9l0,0
												c1.8-0.5,3.5-1.6,4.6-3.1c1.9,6.9,4.5,13.5,7.7,19.9c2.3,4.2,4,8.7,4.9,13.4c0.8,0,1.5,0.1,2.3,0.3
												c2.9-7.4-2.4-15.4-4.8-17.6c-1-0.9-1-1.4-0.5-1.4c3.6,3.3,6.1,7.6,7.3,12.3c0.6,2.4,0.6,5,0.1,7.4
												c0.3,0.1,0.6,0.3,0.9,0.4C75.9,69.1,77.6,71.1,76.8,73.7z" data-index="7" style="opacity: 1;"></path>
											<path id="path15-3" class="st8" d="M53.5,21.4c0,1.2-0.2,2.3-0.7,3.4c-0.2,0.6-0.6,1.1-1,1.6c-0.1-0.1-0.3-0.1-0.4-0.2
												c-0.5-0.2-0.9-0.4-1.3-0.5s-0.7-0.2-1-0.3c0.3-0.3,0.6-0.6,0.8-1c0.2-0.6,0.4-1.2,0.4-1.9v-0.1c0-0.6-0.1-1.2-0.3-1.8
												c-0.2-0.5-0.4-1-0.8-1.4c-0.3-0.3-0.7-0.5-1.2-0.5h-0.1c-0.4,0-0.8,0.2-1.2,0.5c-0.4,0.4-0.7,0.8-0.9,1.3
												c-0.2,0.6-0.4,1.2-0.4,1.9c0,0,0,0.1,0,0.1c0,0.4,0,0.7,0.1,1.1c-0.9-0.4-1.8-0.7-2.7-0.9c0-0.3-0.1-0.7-0.1-1v-0.1
												c0-1.2,0.2-2.3,0.7-3.4c0.4-1,1.1-1.9,1.9-2.5c0.7-0.6,1.7-0.9,2.6-0.9h0c0.9,0,1.9,0.3,2.6,0.9c0.9,0.6,1.5,1.5,2,2.5
												c0.5,1,0.7,2.2,0.7,3.3C53.5,21.4,53.5,21.4,53.5,21.4L53.5,21.4z" data-index="8"></path>
											<path id="path17-3" class="st8" d="M39.1,22.7c-0.1,0-0.2,0.1-0.4,0.1c-0.6,0.2-1.2,0.5-1.7,0.8c0.1-0.4,0.1-0.8,0-1.1
												c0,0,0,0,0-0.1c0-0.5-0.2-1-0.4-1.5c-0.2-0.4-0.4-0.8-0.7-1.1c-0.2-0.2-0.5-0.3-0.8-0.3H35c-0.3,0-0.6,0.2-0.8,0.5
												c-0.3,0.3-0.4,0.7-0.5,1.2c-0.1,0.5-0.2,1-0.1,1.6v0.1c0,0.5,0.2,1,0.4,1.5c0.2,0.4,0.4,0.8,0.7,1.1c0,0,0.1,0.1,0.2,0.1
												c-0.3,0.2-0.5,0.4-0.8,0.6l-0.6,0.4c-0.5-0.5-0.9-1.1-1.2-1.8c-0.4-0.9-0.6-1.9-0.7-2.9l0,0c-0.1-1,0-2,0.3-3
												c0.2-0.8,0.7-1.6,1.3-2.2c0.5-0.5,1.1-0.8,1.9-0.9h0.2c0.7,0,1.3,0.2,1.8,0.7c0.7,0.5,1.2,1.3,1.5,2.1
												c0.4,0.9,0.6,1.9,0.7,2.9l0,0C39.1,21.8,39.1,22.2,39.1,22.7L39.1,22.7z" data-index="9"></path>
											<path id="path28396-7-3" class="st7" d="M42.3,25.3c0.1,0.3,0.5,0.2,0.7,0.3s0.4,0.3,0.6,0.4c0.2,0,0.6-0.1,0.6-0.3
												c0-0.3-0.4-0.5-0.7-0.6c-0.4-0.2-0.8-0.2-1.2,0C42.3,25.1,42.2,25.2,42.3,25.3z" data-index="10"></path>
											<path id="path5461-3" class="st7" d="M39.8,25.3c-0.1,0.3-0.5,0.2-0.7,0.3s-0.4,0.3-0.6,0.4c-0.2,0-0.6-0.1-0.6-0.3
												c0-0.3,0.4-0.5,0.7-0.6c0.4-0.2,0.8-0.2,1.2,0C39.7,25.1,39.8,25.2,39.8,25.3z" data-index="11"></path>
										</g>
									</g>
									<g id="Group_3668" transform="translate(169.818 38.332)">
										<path id="Path_3654-2" class="st8" d="M-0.3,2.1c2.9-0.4,5.9-0.7,8.9-0.7c4.7-0.4,9.4,1.1,13.1,4c3.1,3,4.8,7.3,4.6,11.6
											c0.2,4.7-1.5,9.2-4.7,12.6c-4,3.4-9.1,5-14.3,4.7c-2.5,0-5.1-0.1-7.6-0.4L-0.3,2.1z M3.9,30.7C5.3,30.9,6.7,31,8.1,31
											c8.9,0,13.8-5,13.8-13.7c0-7.6-4.3-12.5-13.1-12.5c-1.6,0-3.3,0.1-4.9,0.4L3.9,30.7z" data-index="12" style="opacity: 1; visibility: visible; fill: rgb(0, 0, 0);"></path>
										<path id="Path_3655-2" class="st8" d="M52.7,22.2c0.5,6.2-4.1,11.8-10.3,12.3c-0.4,0-0.8,0-1.3,0
											c-6.1,0.1-11.1-4.8-11.2-10.9c0-0.3,0-0.7,0-1c-0.6-6.2,4.1-11.7,10.3-12.3c0.4,0,0.8-0.1,1.2,0
											c6.1-0.1,11.1,4.7,11.2,10.8C52.8,21.4,52.8,21.8,52.7,22.2z M34.3,22.5c0,5.1,2.9,8.9,7.1,8.9c4,0,7.1-3.8,7.1-9
											c0-3.9-2-8.9-7-8.9S34.3,18.1,34.3,22.5L34.3,22.5z" data-index="13" style="opacity: 1; visibility: visible; fill: rgb(0, 0, 0);"></path>
										<path id="Path_3656-2" class="st8" d="M59.4,10.8l3.1,11.8c0.7,2.6,1.3,5,1.7,7.4h0.1c0.5-2.4,1.3-4.8,2.1-7.3l3.8-11.9
											h3.6l3.6,11.6c0.9,2.8,1.5,5.2,2.1,7.6h0.1c0.4-2.5,1-5.1,1.8-7.5l3.3-11.7h4.2L81.3,34h-3.8L74,23
											c-0.8-2.5-1.5-5.1-2.1-7.6h-0.1c-0.6,2.6-1.3,5.2-2.1,7.7l-3.7,11h-3.8l-7-23.2L59.4,10.8z" data-index="14" style="opacity: 1; visibility: visible; fill: rgb(0, 0, 0);"></path>
										<path id="Path_3657-2" class="st8" d="M93.1,17.1c0-2.4,0-4.4-0.2-6.3h3.8l0.2,3.8H97c1.6-2.8,4.5-4.5,7.7-4.4
											c3.2,0,8.2,1.9,8.2,9.9V34h-4.2V20.7c0-3.7-1.4-6.9-5.4-6.9c-3.4,0.1-6,2.9-6,6.3v14h-4.2L93.1,17.1z" data-index="15" style="opacity: 1; visibility: visible; fill: rgb(0, 0, 0);"></path>
										<path id="Path_3658-2" class="st8" d="M119.7,0h4.2V34h-4.2V0z" data-index="16" style="opacity: 1; visibility: visible; fill: rgb(0, 0, 0);"></path>
										<path id="Path_3659-2" class="st8" d="M152,22.2c0.5,6.2-4.1,11.8-10.3,12.3c-0.4,0-0.8,0.1-1.3,0
											c-6.1,0.1-11.1-4.8-11.2-10.9c0,0,0,0,0,0c0-0.3,0-0.7,0-1c-0.6-6.2,4.1-11.7,10.3-12.3c0.4,0,0.8-0.1,1.2,0
											c6.1-0.1,11.1,4.7,11.2,10.8C152.1,21.4,152.1,21.8,152,22.2L152,22.2z M133.6,22.5c0,5.1,2.9,8.9,7.1,8.9
											c4,0,7.1-3.8,7.1-9c0-3.9-2-8.9-7-8.9S133.6,18.1,133.6,22.5L133.6,22.5z" data-index="17" style="opacity: 1; visibility: visible; fill: rgb(0, 0, 0);"></path>
										<path id="Path_3660-2" class="st8" d="M170.2,34l-0.3-2.9h-0.1c-1.7,2.2-4.3,3.5-7.1,3.5c-3.6,0.3-6.8-2.5-7.1-6.1
											c0-0.2,0-0.4,0-0.6c0-5.6,5-8.7,14-8.6v-0.5c0.3-2.6-1.5-5-4.1-5.4c-0.4-0.1-0.8-0.1-1.2,0c-2.1,0-4.2,0.6-6,1.7l-1-2.8
											c2.3-1.4,5-2.1,7.6-2.1c7.1,0,8.8,4.8,8.8,9.5v8.7c0,1.9,0.1,3.7,0.4,5.6L170.2,34z M169.6,22.2c-4.6-0.1-9.8,0.7-9.8,5.2
											c-0.2,2.1,1.4,3.9,3.4,4c0.2,0,0.4,0,0.6,0c2.5,0.1,4.8-1.5,5.6-3.9c0.1-0.4,0.2-0.9,0.2-1.3L169.6,22.2z" data-index="18" style="opacity: 1; visibility: visible; fill: rgb(0, 0, 0);"></path>
										<path id="Path_3661-2" class="st8" d="M200.6,0V28c0,2.1,0,4.4,0.2,6H197l-0.2-4h-0.1c-1.5,2.9-4.6,4.7-7.9,4.6
											c-5.6,0-9.9-4.8-9.9-11.8c0-7.7,4.8-12.5,10.4-12.5c2.8-0.2,5.5,1.2,7,3.5h0.1V0H200.6z M196.3,20.3
											c0-0.6-0.1-1.2-0.2-1.8c-0.6-2.9-3.2-4.9-6.1-4.9c-4.4,0-7,3.8-7,9c0,4.7,2.3,8.6,6.9,8.6c3,0,5.6-2.1,6.2-5
											c0.1-0.6,0.2-1.2,0.2-1.8L196.3,20.3z" data-index="19" style="opacity: 1; visibility: visible; fill: rgb(0, 0, 0);"></path>
									</g>
									<g id="Group_3669" transform="translate(165.001 79.357)">
										<path id="Path_3662-2" class="st8" d="M5.1,68.8V35.8h-5.4v-5.3h5.4v-1.8c-0.4-4.9,1.2-9.7,4.4-13.4
											c2.5-2.4,5.9-3.6,9.4-3.6c2,0,4.1,0.4,5.9,1.1l-1,5.4c-1.4-0.6-2.9-0.9-4.4-0.9c-5.9,0-7.5,5.2-7.5,11.1v2.1h9.3v5.3H12
											v33L5.1,68.8z" data-index="20" style="opacity: 1; visibility: visible; fill: rgb(0, 0, 0);"></path>
										<path id="Path_3663-2" class="st8" d="M61.2,49.3c0,14.2-9.8,20.4-19.1,20.4c-10.4,0-18.4-7.6-18.4-19.7
											c0-12.8,8.4-20.4,19-20.4C53.8,29.6,61.2,37.6,61.2,49.3z M30.8,49.7c0,8.4,4.8,14.7,11.7,14.7c6.7,0,11.7-6.3,11.7-14.9
											c0-6.5-3.3-14.7-11.5-14.7S30.8,42.4,30.8,49.7z" data-index="21" style="opacity: 1; visibility: visible; fill: rgb(0, 0, 0);"></path>
										<path id="Path_3664-2" class="st8" d="M70,42.4c0-4.5-0.1-8.4-0.3-12h6.1L76,38h0.3c1.3-4.8,5.6-8.2,10.6-8.4
											c0.7,0,1.3,0.1,2,0.2v6.6c-0.8-0.2-1.6-0.2-2.4-0.2c-4.9,0.2-8.9,4-9.4,9c-0.2,1.1-0.3,2.2-0.3,3.3v20.4H70L70,42.4z" data-index="22" style="opacity: 1; visibility: visible; fill: rgb(0, 0, 0);"></path>
										<g id="Linux-2" transform="translate(114.218 -1)">
											<g class="st9">
												<path class="st8" d="M6.4,70v-52h7.4v46.5h23.4V70H6.4z" data-index="23" style="opacity: 1; visibility: visible; fill: rgb(0, 0, 0);"></path>
												<path class="st8" d="M45,24.9v-6.9h6.9v6.9H45z M45,70V31.8h6.9V70H45z" data-index="24" style="opacity: 1; visibility: visible; fill: rgb(0, 0, 0);"></path>
												<path class="st8" d="M65.8,70V31.8h6.9V39c3.7-5.3,8.1-8,13.4-8c3.3,0,5.9,1,7.9,3.1s3,4.9,3,8.5V70h-6.9V44.8
													c0-2.8-0.4-4.9-1.2-6.1s-2.2-1.8-4.1-1.8c-4.2,0-8.2,2.8-12,8.3V70H65.8z" data-index="25" style="opacity: 1; visibility: visible; fill: rgb(0, 0, 0);"></path>
												<path class="st8" d="M134.4,70v-7.2c-3.7,5.4-8.1,8.1-13.4,8.1c-3.3,0-6-1-7.9-3.1s-3-4.9-3-8.5V31.8h6.9V57
													c0,2.9,0.4,4.9,1.2,6.1s2.2,1.8,4.2,1.8c4.2,0,8.2-2.8,12-8.3V31.8h6.9V70H134.4z" data-index="26" style="opacity: 1; visibility: visible; fill: rgb(0, 0, 0);"></path>
												<path class="st8" d="M151.4,70l14.5-19.7l-14.1-18.5h8.2l11.1,14.7l10.1-14.7h6.8l-13.2,19.4L189.2,70h-8.2l-11.5-15.1
													L158.3,70H151.4z" data-index="27" style="opacity: 1; visibility: visible; fill: rgb(0, 0, 0);"></path>
											</g>
										</g>
									</g>
								</g>
							</g>
						</g>
					</g>
				</g>
			</g>
		</g>
	</g>
</g>
</svg>